<?xml version="1.0" encoding="utf-8"?>
<!-- Generator: Adobe Illustrator 22.0.1, SVG Export Plug-In . SVG Version: 6.00 Build 0)  -->
<svg version="1.1"
	 id="svg2" xmlns:cc="http://creativecommons.org/ns#" xmlns:dc="http://purl.org/dc/elements/1.1/" xmlns:rdf="http://www.w3.org/1999/02/22-rdf-syntax-ns#" xmlns:svg="http://www.w3.org/2000/svg"
	 xmlns="http://www.w3.org/2000/svg" xmlns:xlink="http://www.w3.org/1999/xlink" x="0px" y="0px" viewBox="0 0 406 100"
	 style="enable-background:new 0 0 406 100;" xml:space="preserve">
<style type="text/css">
	.st0{fill:#AFAFAF;}
	.st1{fill:#FFFFFF;}
</style>
<path id="path452" class="st0" d="M53.1,100C21.3,100,0,77.4,0,50.1C0,22.7,21.3-0.1,53.1,0h299.8c31.7-0.1,53,22.7,53,50.1
	c0,27.4-21.3,49.9-53.1,49.9L53.1,100L53.1,100z"/>
<path id="path454" class="st1" d="M53.2,12.3C28,12.3,12.6,29.2,12.6,50c0,20.8,15.4,37.8,40.7,37.7h299.6
	c25.3,0.1,40.7-16.9,40.7-37.7c0-20.8-15.5-37.7-40.7-37.7C352.8,12.3,53.2,12.3,53.2,12.3z"/>
<path id="path456" class="st0" d="M40.3,26.4H55l20.3,32.8l0-32.8h14.5v47.1H75.3L54.9,40.6v32.8H40.3L40.3,26.4L40.3,26.4z"/>
<path id="path458" class="st0" d="M168.9,31.2h14.2v6.3h7.7v4.7h-7.7l0,31.2h-14.2l0-31.2h-7.7v-4.6l7.7,0L168.9,31.2L168.9,31.2z"
	/>
<path id="path460" class="st0" d="M97.9,42.1h14.2v31.3H97.9C97.9,73.5,97.9,42.1,97.9,42.1z"/>
<path id="path462" class="st0" d="M97.9,26.4h14.2V36H97.9V26.4z"/>
<path id="path464" class="st0" d="M346,40c-11.4,0-20.7,7.9-20.7,17.6c0,9.7,9.3,17.6,20.7,17.6c11.4,0,20.7-7.9,20.7-17.6
	C366.7,47.9,357.4,40,346,40 M351.7,57.5c0,0,0,4.7,0,6.6c0,5-2.9,7-5.8,7c-2.8,0-5.8-2.1-5.8-7c0-1.9,0-6.8,0-6.8s0-4.6,0-6.5
	c0-5,3-7,5.8-7c2.8,0,5.8,2,5.8,7C351.7,52.8,351.7,56.3,351.7,57.5L351.7,57.5L351.7,57.5z"/>
<path id="path466" class="st0" d="M306.8,57.6V52c0-4.8-3.3-6.1-5.5-6.1c-2.3,0-5.6,1.2-5.6,6.1v5.6v5.6c0,4.9,3.3,6.1,5.6,6.1
	c2.2,0,5.5-1.2,5.5-6.1L306.8,57.6L306.8,57.6z M306.7,26.4h14v47.1h-14c0,0,0-1.5,0-1.8c-5.4,3.4-11.5,3.4-16.3,1.2
	c-1.3-0.6-9.7-4.6-9.7-15.5c0-8.3,7.8-17.3,18-16.4c3.4,0.3,5.7,1.5,8,2.8L306.7,26.4L306.7,26.4z"/>
<path id="path468" class="st0" d="M145.2,40.7c5.3-0.2,16,3.3,16,15.7c0,2.2,0,17,0,17h-14.1V52.9c0-2.7-2.6-5.8-6.5-5.8
	c-3.9,0-6.7,3-6.7,5.8c0,1.3,0,20.6,0,20.6h-14.1l0-31.3l14.1,0c0,0,0,2.5,0,3.3C136.6,42.8,140.5,40.8,145.2,40.7"/>
<path id="path470" class="st0" d="M260.3,40.7c5.3-0.2,16,3.3,16,15.7c0,2.2,0,17,0,17h-14.1V52.9c0-2.7-2.6-5.8-6.5-5.8
	c-3.9,0-6.7,3-6.7,5.8c0,1.3,0,20.6,0,20.6h-14.1V42.1l14.1,0c0,0,0,2.5,0,3.3C251.7,42.8,255.6,40.8,260.3,40.7"/>
<path id="path472" class="st0" d="M215.7,62.5c0,0,0,0.1,0,1.9c0,5.7-3.8,7-5.9,7c-2.1,0-5.9-1.3-5.9-7c0-1.7,0-6.5,0-6.5
	s26.7,0,26.7,0c0-9.7-9.4-17.7-20.9-17.7s-20.8,7.9-20.8,17.6s9.3,17.6,20.8,17.6c9.6,0,17.6-5.5,20.1-12.8L215.7,62.5L215.7,62.5z
	 M204,53.1c0-2.7,0-4.6,0.9-6.1c1.1-1.9,3.1-2.8,5-2.9c1.8,0,3.9,0.9,5,2.9c0.9,1.6,1,3.4,0.9,6.1H204z"/>
<path id="path474" class="st0" d="M369.6,31.5c1.4,0,2.6-0.1,2.6-1.7c0-1.3-1.2-1.6-2.3-1.6h-2.2v3.3H369.6z M367.7,37.6h-1.6V26.9
	h4.1c2.5,0,3.8,0.9,3.8,3c0,1.9-1.2,2.7-2.8,2.9l3,4.7h-1.8l-2.8-4.6h-1.9L367.7,37.6L367.7,37.6z"/>
<path id="path476" class="st0" d="M369.6,40c4.2,0,7.5-3.3,7.5-7.8c0-4.4-3.3-7.7-7.5-7.7c-4.2,0-7.6,3.3-7.6,7.7
	C362.1,36.7,365.4,40,369.6,40 M360.2,32.2c0-5.3,4.3-9.3,9.4-9.3c5.1,0,9.4,3.9,9.4,9.3c0,5.4-4.3,9.3-9.4,9.3
	C364.5,41.5,360.2,37.6,360.2,32.2"/>
</svg>
